{"title":"Secrets Of Sex Chapter 3 2014 Movies DVDRip XViD +Sample â˜»rDXâ˜»","uid":11583218,"size":735703835,"categoryP":"video","categoryS":"movies","magnet":"?xt=urn:btih:0ff410fc3daf57aed9adc2ccf535d2c90dc571d1&amp;dn=Secrets+Of+Sex+Chapter+3+2014+Movies+DVDRip+XViD+%2BSample+%E2%98%BBrDX%E2%98%BB&amp;tr=udp%3A%2F%2Ftracker.openbittorrent.com%3A80&amp;tr=udp%3A%2F%2Fopen.demonii.com%3A1337&amp;tr=udp%3A%2F%2Ftracker.coppersurfer.tk%3A6969&amp;tr=udp%3A%2F%2Fexodus.desync.com%3A6969","seeders":16,"leechers":9,"uploader":"basicssom","files":2,"time":1417147076,"description":"----------------------------------------------------------------\nSecrets Of Sex Chapter 3 2014 Hindi Movies DVDRip XViD with Sample ~ â˜»rDXâ˜»\n\nPOSTER:\n\n\nSCREEN SHOTS :\n &lt;a href=&quot;\nhttp://planethost.co.nr/7/SecretsOfSChapter3/1.html&quot; rel=&quot;nofollow&quot; target=&quot;_NEW&quot;&gt;\nhttp://planethost.co.nr/7/SecretsOfSChapter3/1.html&lt;/a&gt; &lt;a href=&quot;\nhttp://planethost.co.nr/7/SecretsOfSChapter3/2.html&quot; rel=&quot;nofollow&quot; target=&quot;_NEW&quot;&gt;\nhttp://planethost.co.nr/7/SecretsOfSChapter3/2.html&lt;/a&gt; &lt;a href=&quot;\nhttp://planethost.co.nr/7/SecretsOfSChapter3/3.html&quot; rel=&quot;nofollow&quot; target=&quot;_NEW&quot;&gt;\nhttp://planethost.co.nr/7/SecretsOfSChapter3/3.html&lt;/a&gt; &lt;a href=&quot;\nhttp://planethost.co.nr/7/SecretsOfSChapter3/4.html&quot; rel=&quot;nofollow&quot; target=&quot;_NEW&quot;&gt;\nhttp://planethost.co.nr/7/SecretsOfSChapter3/4.html&lt;/a&gt; &lt;a href=&quot;\nhttp://planethost.co.nr/7/SecretsOfSChapter3/5.html&quot; rel=&quot;nofollow&quot; target=&quot;_NEW&quot;&gt;\nhttp://planethost.co.nr/7/SecretsOfSChapter3/5.html&lt;/a&gt; &lt;a href=&quot;\nhttp://planethost.co.nr/7/SecretsOfSChapter3/6.html&quot; rel=&quot;nofollow&quot; target=&quot;_NEW&quot;&gt;\nhttp://planethost.co.nr/7/SecretsOfSChapter3/6.html&lt;/a&gt; &lt;a href=&quot;\nhttp://planethost.co.nr/7/SecretsOfSChapter3/7.html&quot; rel=&quot;nofollow&quot; target=&quot;_NEW&quot;&gt;\nhttp://planethost.co.nr/7/SecretsOfSChapter3/7.html&lt;/a&gt; &lt;a href=&quot;\nhttp://planethost.co.nr/7/SecretsOfSChapter3/8.html&quot; rel=&quot;nofollow&quot; target=&quot;_NEW&quot;&gt;\nhttp://planethost.co.nr/7/SecretsOfSChapter3/8.html&lt;/a&gt; &lt;a href=&quot;\nhttp://planethost.co.nr/7/SecretsOfSChapter3/9.html&quot; rel=&quot;nofollow&quot; target=&quot;_NEW&quot;&gt;\nhttp://planethost.co.nr/7/SecretsOfSChapter3/9.html&lt;/a&gt; &lt;a href=&quot;\nhttp://planethost.co.nr/7/SecretsOfSChapter3/10.html&quot; rel=&quot;nofollow&quot; target=&quot;_NEW&quot;&gt;\nhttp://planethost.co.nr/7/SecretsOfSChapter3/10.html&lt;/a&gt;\n\nFormat                                   : Matroska\nFormat version                           : Version 4 / Version 2\nFile size                                : 691 MiB\nDuration                                 : 1h 48mn\nOverall bit rate                         : 892 Kbps\nMovie name                               : Secrets Of Sex Chapter 3 2014 Hindi Movies DVDRip XViD ~ rDX ~\n\nVideo\nID                                       : 1\nFormat                                   : MPEG-4 Visual\nFormat profile                           : Advanced Simple@L5\nFormat settings, BVOP                    : Yes\nFormat settings, QPel                    : No\nFormat settings, GMC                     : No warppoints\nFormat settings, Matrix                  : Default (H.263)\nCodec ID                                 : V_MS/VFW/FOURCC / XVID\nCodec ID/Hint                            : XviD\nDuration                                 : 1h 48mn\nBit rate                                 : 747 Kbps\nWidth                                    : 640 pixels\nHeight                                   : 272 pixels\nDisplay aspect ratio                     : 2.35:1\nFrame rate mode                          : Constant\nFrame rate                               : 25.000 fps\nColor space                              : YUV\nChroma subsampling                       : 4:2:0\nBit depth                                : 8 bits\nScan type                                : Progressive\nCompression mode                         : Lossy\nBits/(Pixel*Frame)                       : 0.172\nStream size                              : 578 MiB (84%)\nTitle                                    : ~ rDX ~\nWriting library                          : XviD 1.2.1 (UTC 2008-12-04)\nDefault                                  : Yes\nForced                                   : No\n\nAudio\nID                                       : 2\nFormat                                   : MPEG Audio\nFormat version                           : Version 1\nFormat profile                           : Layer 3\nMode                                     : Joint stereo\nMode extension                           : MS Stereo\nCodec ID                                 : A_MPEG/L3\nCodec ID/Hint                            : MP3\nDuration                                 : 1h 48mn\nBit rate mode                            : Constant\nBit rate                                 : 128 Kbps\nChannel(s)                               : 2 channels\nSampling rate                            : 44.1 KHz\nCompression mode                         : Lossy\nStream size                              : 99.1 MiB (14%)\nTitle                                    : ~ rDX ~\nWriting library                          : LAME3.99r\nEncoding settings                        : -m j -V 4 -q 2 -lowpass 17 -b 128\nDefault                                  : Yes\nForced                                   : No","torrent":{"xt":"urn:btih:0ff410fc3daf57aed9adc2ccf535d2c90dc571d1","amp;dn":"Secrets+Of+Sex+Chapter+3+2014+Movies+DVDRip+XViD+%2BSample+%E2%98%BBrDX%E2%98%BB","amp;tr":["udp%3A%2F%2Ftracker.openbittorrent.com%3A80","udp%3A%2F%2Fopen.demonii.com%3A1337","udp%3A%2F%2Ftracker.coppersurfer.tk%3A6969","udp%3A%2F%2Fexodus.desync.com%3A6969"],"infoHash":"0ff410fc3daf57aed9adc2ccf535d2c90dc571d1","infoHashBuffer":{"type":"Buffer","data":[15,244,16,252,61,175,87,174,217,173,194,204,245,53,210,201,13,197,113,209]},"announce":[],"urlList":[]}}